<mxfile host="app.diagrams.net" modified="2024-02-15T07:42:28.299Z" agent="Mozilla/5.0 (Windows NT 10.0; Win64; x64) AppleWebKit/537.36 (KHTML, like Gecko) Chrome/121.0.0.0 Safari/537.36" etag="Mp1AVGyuqHrm0sQq38Lj" version="23.1.4" type="device">
  <diagram id="C5RBs43oDa-KdzZeNtuy" name="Page-1">
    <mxGraphModel dx="1613" dy="706" grid="1" gridSize="10" guides="1" tooltips="1" connect="1" arrows="1" fold="1" page="1" pageScale="1" pageWidth="827" pageHeight="1169" math="0" shadow="0">
      <root>
        <mxCell id="WIyWlLk6GJQsqaUBKTNV-0" />
        <mxCell id="WIyWlLk6GJQsqaUBKTNV-1" parent="WIyWlLk6GJQsqaUBKTNV-0" />
        <mxCell id="LVNChkOh4f7i9KECHnxP-13" value="TravelPackage" style="swimlane;fontStyle=2;align=center;verticalAlign=top;childLayout=stackLayout;horizontal=1;startSize=26;horizontalStack=0;resizeParent=1;resizeLast=0;collapsible=1;marginBottom=0;rounded=0;shadow=0;strokeWidth=1;" parent="WIyWlLk6GJQsqaUBKTNV-1" vertex="1">
          <mxGeometry x="400" y="80" width="190" height="130" as="geometry">
            <mxRectangle x="230" y="140" width="160" height="26" as="alternateBounds" />
          </mxGeometry>
        </mxCell>
        <mxCell id="LVNChkOh4f7i9KECHnxP-14" value="name: String &#xa;capacity: int&#xa;destinations: List&lt;Destination&gt;&#xa;passengers: List&lt;Passenger&gt;" style="text;align=left;verticalAlign=top;spacingLeft=4;spacingRight=4;overflow=hidden;rotatable=0;points=[[0,0.5],[1,0.5]];portConstraint=eastwest;" parent="LVNChkOh4f7i9KECHnxP-13" vertex="1">
          <mxGeometry y="26" width="190" height="74" as="geometry" />
        </mxCell>
        <mxCell id="4yJXlKOpt2z89cxT2cAZ-0" value="Destination" style="swimlane;fontStyle=2;align=center;verticalAlign=top;childLayout=stackLayout;horizontal=1;startSize=26;horizontalStack=0;resizeParent=1;resizeLast=0;collapsible=1;marginBottom=0;rounded=0;shadow=0;strokeWidth=1;" parent="WIyWlLk6GJQsqaUBKTNV-1" vertex="1">
          <mxGeometry x="520" y="270" width="249" height="120" as="geometry">
            <mxRectangle x="230" y="140" width="160" height="26" as="alternateBounds" />
          </mxGeometry>
        </mxCell>
        <mxCell id="4yJXlKOpt2z89cxT2cAZ-1" value="name: String &#xa;activities: List&lt;Activity&gt;&#xa;passengers: List&lt;Passenger&gt;&#xa;" style="text;align=left;verticalAlign=top;spacingLeft=4;spacingRight=4;overflow=hidden;rotatable=0;points=[[0,0.5],[1,0.5]];portConstraint=eastwest;" parent="4yJXlKOpt2z89cxT2cAZ-0" vertex="1">
          <mxGeometry y="26" width="249" height="64" as="geometry" />
        </mxCell>
        <mxCell id="4yJXlKOpt2z89cxT2cAZ-5" value="Activity" style="swimlane;fontStyle=2;align=center;verticalAlign=top;childLayout=stackLayout;horizontal=1;startSize=26;horizontalStack=0;resizeParent=1;resizeLast=0;collapsible=1;marginBottom=0;rounded=0;shadow=0;strokeWidth=1;" parent="WIyWlLk6GJQsqaUBKTNV-1" vertex="1">
          <mxGeometry x="120" y="190" width="230" height="120" as="geometry">
            <mxRectangle x="650" y="290" width="160" height="26" as="alternateBounds" />
          </mxGeometry>
        </mxCell>
        <mxCell id="4yJXlKOpt2z89cxT2cAZ-15" value="" style="endArrow=none;html=1;rounded=0;" parent="4yJXlKOpt2z89cxT2cAZ-5" target="4yJXlKOpt2z89cxT2cAZ-6" edge="1">
          <mxGeometry width="50" height="50" relative="1" as="geometry">
            <mxPoint x="110" y="100" as="sourcePoint" />
            <mxPoint x="160" y="50" as="targetPoint" />
          </mxGeometry>
        </mxCell>
        <mxCell id="4yJXlKOpt2z89cxT2cAZ-6" value="name: String &#xa;description: String&#xa;cost: double&#xa;capacity: int&#xa;destination: Destination" style="text;align=left;verticalAlign=top;spacingLeft=4;spacingRight=4;overflow=hidden;rotatable=0;points=[[0,0.5],[1,0.5]];portConstraint=eastwest;" parent="4yJXlKOpt2z89cxT2cAZ-5" vertex="1">
          <mxGeometry y="26" width="230" height="74" as="geometry" />
        </mxCell>
        <mxCell id="4yJXlKOpt2z89cxT2cAZ-10" value="Passenger" style="swimlane;fontStyle=2;align=center;verticalAlign=top;childLayout=stackLayout;horizontal=1;startSize=26;horizontalStack=0;resizeParent=1;resizeLast=0;collapsible=1;marginBottom=0;rounded=0;shadow=0;strokeWidth=1;" parent="WIyWlLk6GJQsqaUBKTNV-1" vertex="1">
          <mxGeometry x="270" y="420" width="190" height="155" as="geometry">
            <mxRectangle x="230" y="140" width="160" height="26" as="alternateBounds" />
          </mxGeometry>
        </mxCell>
        <mxCell id="4yJXlKOpt2z89cxT2cAZ-11" value="name: String &#xa;passengerNumber: int&#xa;passengerType: PassengerType&#xa;balance: double&#xa;activities: Map&lt;Activity, Double&gt;" style="text;align=left;verticalAlign=top;spacingLeft=4;spacingRight=4;overflow=hidden;rotatable=0;points=[[0,0.5],[1,0.5]];portConstraint=eastwest;" parent="4yJXlKOpt2z89cxT2cAZ-10" vertex="1">
          <mxGeometry y="26" width="190" height="94" as="geometry" />
        </mxCell>
        <mxCell id="ReTR2AousjlS1jxy6mvg-3" value="" style="endArrow=classic;html=1;rounded=0;exitX=0.5;exitY=1;exitDx=0;exitDy=0;entryX=0.446;entryY=-0.029;entryDx=0;entryDy=0;entryPerimeter=0;" edge="1" parent="WIyWlLk6GJQsqaUBKTNV-1" source="LVNChkOh4f7i9KECHnxP-13" target="4yJXlKOpt2z89cxT2cAZ-0">
          <mxGeometry width="50" height="50" relative="1" as="geometry">
            <mxPoint x="440" y="310" as="sourcePoint" />
            <mxPoint x="490" y="260" as="targetPoint" />
          </mxGeometry>
        </mxCell>
        <mxCell id="ReTR2AousjlS1jxy6mvg-4" value="" style="endArrow=classic;html=1;rounded=0;entryX=1;entryY=1;entryDx=0;entryDy=0;" edge="1" parent="WIyWlLk6GJQsqaUBKTNV-1">
          <mxGeometry width="50" height="50" relative="1" as="geometry">
            <mxPoint x="520" y="330" as="sourcePoint" />
            <mxPoint x="350" y="290" as="targetPoint" />
          </mxGeometry>
        </mxCell>
        <mxCell id="ReTR2AousjlS1jxy6mvg-5" value="" style="endArrow=classic;html=1;rounded=0;exitX=0.5;exitY=1;exitDx=0;exitDy=0;entryX=-0.004;entryY=0.32;entryDx=0;entryDy=0;entryPerimeter=0;" edge="1" parent="WIyWlLk6GJQsqaUBKTNV-1" target="4yJXlKOpt2z89cxT2cAZ-1">
          <mxGeometry width="50" height="50" relative="1" as="geometry">
            <mxPoint x="350" y="280" as="sourcePoint" />
            <mxPoint x="486" y="337" as="targetPoint" />
          </mxGeometry>
        </mxCell>
        <mxCell id="ReTR2AousjlS1jxy6mvg-6" value="" style="endArrow=classic;html=1;rounded=0;exitX=0.5;exitY=0;exitDx=0;exitDy=0;" edge="1" parent="WIyWlLk6GJQsqaUBKTNV-1" source="4yJXlKOpt2z89cxT2cAZ-10">
          <mxGeometry width="50" height="50" relative="1" as="geometry">
            <mxPoint x="280" y="310" as="sourcePoint" />
            <mxPoint x="280" y="310" as="targetPoint" />
          </mxGeometry>
        </mxCell>
        <mxCell id="ReTR2AousjlS1jxy6mvg-7" value="" style="endArrow=classic;html=1;rounded=0;exitX=0.5;exitY=1;exitDx=0;exitDy=0;entryX=0.558;entryY=-0.016;entryDx=0;entryDy=0;entryPerimeter=0;" edge="1" parent="WIyWlLk6GJQsqaUBKTNV-1" target="4yJXlKOpt2z89cxT2cAZ-10">
          <mxGeometry width="50" height="50" relative="1" as="geometry">
            <mxPoint x="297" y="310" as="sourcePoint" />
            <mxPoint x="433" y="367" as="targetPoint" />
          </mxGeometry>
        </mxCell>
        <mxCell id="ReTR2AousjlS1jxy6mvg-8" value="" style="endArrow=classic;html=1;rounded=0;exitX=0.25;exitY=1;exitDx=0;exitDy=0;entryX=1;entryY=0.5;entryDx=0;entryDy=0;" edge="1" parent="WIyWlLk6GJQsqaUBKTNV-1" source="4yJXlKOpt2z89cxT2cAZ-0" target="4yJXlKOpt2z89cxT2cAZ-11">
          <mxGeometry width="50" height="50" relative="1" as="geometry">
            <mxPoint x="660" y="410" as="sourcePoint" />
            <mxPoint x="710" y="360" as="targetPoint" />
          </mxGeometry>
        </mxCell>
        <mxCell id="ReTR2AousjlS1jxy6mvg-12" value="" style="curved=1;endArrow=classic;html=1;rounded=0;exitX=0;exitY=0.324;exitDx=0;exitDy=0;entryX=0;entryY=0.5;entryDx=0;entryDy=0;exitPerimeter=0;" edge="1" parent="WIyWlLk6GJQsqaUBKTNV-1" source="LVNChkOh4f7i9KECHnxP-14" target="4yJXlKOpt2z89cxT2cAZ-11">
          <mxGeometry width="50" height="50" relative="1" as="geometry">
            <mxPoint x="660" y="410" as="sourcePoint" />
            <mxPoint x="710" y="360" as="targetPoint" />
            <Array as="points">
              <mxPoint x="350" y="130" />
              <mxPoint x="-60" y="200" />
            </Array>
          </mxGeometry>
        </mxCell>
      </root>
    </mxGraphModel>
  </diagram>
</mxfile>
